<?xml version='1.0' encoding='UTF-8'?>
<svg width="49mm" height="49mm" version="1.1" viewBox="0 0 49 49" xmlns="http://www.w3.org/2000/svg"><title>Akalynth F-Droid repository</title><rect width="100%" height="100%" fill="#ffffff"/><path d="M4,4H5V5H4zM5,4H6V5H5zM6,4H7V5H6zM7,4H8V5H7zM8,4H9V5H8zM9,4H10V5H9zM10,4H11V5H10zM15,4H16V5H15zM17,4H18V5H17zM18,4H19V5H18zM19,4H20V5H19zM20,4H21V5H20zM22,4H23V5H22zM26,4H27V5H26zM28,4H29V5H28zM32,4H33V5H32zM33,4H34V5H33zM35,4H36V5H35zM38,4H39V5H38zM39,4H40V5H39zM40,4H41V5H40zM41,4H42V5H41zM42,4H43V5H42zM43,4H44V5H43zM44,4H45V5H44zM4,5H5V6H4zM10,5H11V6H10zM13,5H14V6H13zM15,5H16V6H15zM18,5H19V6H18zM22,5H23V6H22zM24,5H25V6H24zM26,5H27V6H26zM27,5H28V6H27zM33,5H34V6H33zM38,5H39V6H38zM44,5H45V6H44zM4,6H5V7H4zM6,6H7V7H6zM7,6H8V7H7zM8,6H9V7H8zM10,6H11V7H10zM12,6H13V7H12zM13,6H14V7H13zM14,6H15V7H14zM15,6H16V7H15zM17,6H18V7H17zM19,6H20V7H19zM24,6H25V7H24zM27,6H28V7H27zM28,6H29V7H28zM32,6H33V7H32zM33,6H34V7H33zM38,6H39V7H38zM40,6H41V7H40zM41,6H42V7H41zM42,6H43V7H42zM44,6H45V7H44zM4,7H5V8H4zM6,7H7V8H6zM7,7H8V8H7zM8,7H9V8H8zM10,7H11V8H10zM12,7H13V8H12zM15,7H16V8H15zM16,7H17V8H16zM18,7H19V8H18zM19,7H20V8H19zM22,7H23V8H22zM23,7H24V8H23zM24,7H25V8H24zM25,7H26V8H25zM26,7H27V8H26zM30,7H31V8H30zM34,7H35V8H34zM36,7H37V8H36zM38,7H39V8H38zM40,7H41V8H40zM41,7H42V8H41zM42,7H43V8H42zM44,7H45V8H44zM4,8H5V9H4zM6,8H7V9H6zM7,8H8V9H7zM8,8H9V9H8zM10,8H11V9H10zM12,8H13V9H12zM14,8H15V9H14zM16,8H17V9H16zM17,8H18V9H17zM18,8H19V9H18zM19,8H20V9H19zM21,8H22V9H21zM23,8H24V9H23zM24,8H25V9H24zM27,8H28V9H27zM30,8H31V9H30zM32,8H33V9H32zM34,8H35V9H34zM35,8H36V9H35zM36,8H37V9H36zM38,8H39V9H38zM40,8H41V9H40zM41,8H42V9H41zM42,8H43V9H42zM44,8H45V9H44zM4,9H5V10H4zM10,9H11V10H10zM12,9H13V10H12zM13,9H14V10H13zM15,9H16V10H15zM16,9H17V10H16zM18,9H19V10H18zM21,9H22V10H21zM25,9H26V10H25zM26,9H27V10H26zM30,9H31V10H30zM31,9H32V10H31zM32,9H33V10H32zM33,9H34V10H33zM36,9H37V10H36zM38,9H39V10H38zM44,9H45V10H44zM4,10H5V11H4zM5,10H6V11H5zM6,10H7V11H6zM7,10H8V11H7zM8,10H9V11H8zM9,10H10V11H9zM10,10H11V11H10zM12,10H13V11H12zM14,10H15V11H14zM16,10H17V11H16zM18,10H19V11H18zM20,10H21V11H20zM22,10H23V11H22zM24,10H25V11H24zM26,10H27V11H26zM28,10H29V11H28zM30,10H31V11H30zM32,10H33V11H32zM34,10H35V11H34zM36,10H37V11H36zM38,10H39V11H38zM39,10H40V11H39zM40,10H41V11H40zM41,10H42V11H41zM42,10H43V11H42zM43,10H44V11H43zM44,10H45V11H44zM12,11H13V12H12zM16,11H17V12H16zM17,11H18V12H17zM22,11H23V12H22zM23,11H24V12H23zM24,11H25V12H24zM25,11H26V12H25zM32,11H33V12H32zM34,11H35V12H34zM35,11H36V12H35zM36,11H37V12H36zM4,12H5V13H4zM6,12H7V13H6zM7,12H8V13H7zM8,12H9V13H8zM9,12H10V13H9zM10,12H11V13H10zM13,12H14V13H13zM16,12H17V13H16zM20,12H21V13H20zM21,12H22V13H21zM23,12H24V13H23zM26,12H27V13H26zM28,12H29V13H28zM29,12H30V13H29zM33,12H34V13H33zM35,12H36V13H35zM38,12H39V13H38zM39,12H40V13H39zM40,12H41V13H40zM41,12H42V13H41zM42,12H43V13H42zM4,13H5V14H4zM5,13H6V14H5zM7,13H8V14H7zM12,13H13V14H12zM14,13H15V14H14zM17,13H18V14H17zM22,13H23V14H22zM23,13H24V14H23zM25,13H26V14H25zM26,13H27V14H26zM27,13H28V14H27zM32,13H33V14H32zM34,13H35V14H34zM35,13H36V14H35zM36,13H37V14H36zM37,13H38V14H37zM39,13H40V14H39zM40,13H41V14H40zM42,13H43V14H42zM5,14H6V15H5zM8,14H9V15H8zM10,14H11V15H10zM11,14H12V15H11zM12,14H13V15H12zM16,14H17V15H16zM17,14H18V15H17zM18,14H19V15H18zM29,14H30V15H29zM30,14H31V15H30zM31,14H32V15H31zM32,14H33V15H32zM33,14H34V15H33zM34,14H35V15H34zM36,14H37V15H36zM37,14H38V15H37zM38,14H39V15H38zM40,14H41V15H40zM43,14H44V15H43zM4,15H5V16H4zM7,15H8V16H7zM11,15H12V16H11zM12,15H13V16H12zM13,15H14V16H13zM14,15H15V16H14zM15,15H16V16H15zM20,15H21V16H20zM22,15H23V16H22zM25,15H26V16H25zM28,15H29V16H28zM31,15H32V16H31zM34,15H35V16H34zM35,15H36V16H35zM36,15H37V16H36zM37,15H38V16H37zM38,15H39V16H38zM39,15H40V16H39zM41,15H42V16H41zM4,16H5V17H4zM5,16H6V17H5zM6,16H7V17H6zM8,16H9V17H8zM9,16H10V17H9zM10,16H11V17H10zM12,16H13V17H12zM13,16H14V17H13zM15,16H16V17H15zM17,16H18V17H17zM18,16H19V17H18zM21,16H22V17H21zM22,16H23V17H22zM23,16H24V17H23zM26,16H27V17H26zM28,16H29V17H28zM29,16H30V17H29zM30,16H31V17H30zM32,16H33V17H32zM33,16H34V17H33zM35,16H36V17H35zM37,16H38V17H37zM41,16H42V17H41zM42,16H43V17H42zM6,17H7V18H6zM8,17H9V18H8zM9,17H10V18H9zM12,17H13V18H12zM13,17H14V18H13zM14,17H15V18H14zM16,17H17V18H16zM19,17H20V18H19zM24,17H25V18H24zM26,17H27V18H26zM28,17H29V18H28zM33,17H34V18H33zM34,17H35V18H34zM36,17H37V18H36zM39,17H40V18H39zM40,17H41V18H40zM41,17H42V18H41zM42,17H43V18H42zM43,17H44V18H43zM5,18H6V19H5zM6,18H7V19H6zM10,18H11V19H10zM12,18H13V19H12zM13,18H14V19H13zM14,18H15V19H14zM15,18H16V19H15zM16,18H17V19H16zM18,18H19V19H18zM19,18H20V19H19zM20,18H21V19H20zM21,18H22V19H21zM23,18H24V19H23zM26,18H27V19H26zM28,18H29V19H28zM29,18H30V19H29zM32,18H33V19H32zM33,18H34V19H33zM34,18H35V19H34zM36,18H37V19H36zM37,18H38V19H37zM41,18H42V19H41zM42,18H43V19H42zM6,19H7V20H6zM8,19H9V20H8zM9,19H10V20H9zM11,19H12V20H11zM13,19H14V20H13zM16,19H17V20H16zM18,19H19V20H18zM20,19H21V20H20zM22,19H23V20H22zM23,19H24V20H23zM24,19H25V20H24zM28,19H29V20H28zM29,19H30V20H29zM30,19H31V20H30zM31,19H32V20H31zM32,19H33V20H32zM34,19H35V20H34zM35,19H36V20H35zM38,19H39V20H38zM40,19H41V20H40zM41,19H42V20H41zM4,20H5V21H4zM6,20H7V21H6zM7,20H8V21H7zM9,20H10V21H9zM10,20H11V21H10zM13,20H14V21H13zM14,20H15V21H14zM23,20H24V21H23zM24,20H25V21H24zM25,20H26V21H25zM28,20H29V21H28zM29,20H30V21H29zM31,20H32V21H31zM35,20H36V21H35zM37,20H38V21H37zM39,20H40V21H39zM42,20H43V21H42zM43,20H44V21H43zM8,21H9V22H8zM9,21H10V22H9zM13,21H14V22H13zM14,21H15V22H14zM17,21H18V22H17zM19,21H20V22H19zM21,21H22V22H21zM22,21H23V22H22zM23,21H24V22H23zM25,21H26V22H25zM26,21H27V22H26zM27,21H28V22H27zM29,21H30V22H29zM31,21H32V22H31zM32,21H33V22H32zM34,21H35V22H34zM38,21H39V22H38zM39,21H40V22H39zM40,21H41V22H40zM43,21H44V22H43zM44,21H45V22H44zM4,22H5V23H4zM5,22H6V23H5zM6,22H7V23H6zM10,22H11V23H10zM11,22H12V23H11zM12,22H13V23H12zM13,22H14V23H13zM18,22H19V23H18zM21,22H22V23H21zM23,22H24V23H23zM25,22H26V23H25zM28,22H29V23H28zM29,22H30V23H29zM31,22H32V23H31zM33,22H34V23H33zM35,22H36V23H35zM36,22H37V23H36zM38,22H39V23H38zM40,22H41V23H40zM43,22H44V23H43zM4,23H5V24H4zM6,23H7V24H6zM9,23H10V24H9zM12,23H13V24H12zM15,23H16V24H15zM17,23H18V24H17zM21,23H22V24H21zM22,23H23V24H22zM25,23H26V24H25zM26,23H27V24H26zM27,23H28V24H27zM31,23H32V24H31zM38,23H39V24H38zM40,23H41V24H40zM7,24H8V25H7zM9,24H10V25H9zM10,24H11V25H10zM13,24H14V25H13zM15,24H16V25H15zM25,24H26V25H25zM28,24H29V25H28zM30,24H31V25H30zM32,24H33V25H32zM33,24H34V25H33zM34,24H35V25H34zM40,24H41V25H40zM44,24H45V25H44zM4,25H5V26H4zM5,25H6V26H5zM6,25H7V26H6zM7,25H8V26H7zM15,25H16V26H15zM16,25H17V26H16zM17,25H18V26H17zM22,25H23V26H22zM23,25H24V26H23zM24,25H25V26H24zM26,25H27V26H26zM27,25H28V26H27zM29,25H30V26H29zM35,25H36V26H35zM37,25H38V26H37zM38,25H39V26H38zM42,25H43V26H42zM43,25H44V26H43zM44,25H45V26H44zM4,26H5V27H4zM5,26H6V27H5zM8,26H9V27H8zM9,26H10V27H9zM10,26H11V27H10zM11,26H12V27H11zM18,26H19V27H18zM21,26H22V27H21zM22,26H23V27H22zM24,26H25V27H24zM25,26H26V27H25zM29,26H30V27H29zM30,26H31V27H30zM31,26H32V27H31zM32,26H33V27H32zM40,26H41V27H40zM41,26H42V27H41zM4,27H5V28H4zM6,27H7V28H6zM9,27H10V28H9zM12,27H13V28H12zM14,27H15V28H14zM16,27H17V28H16zM17,27H18V28H17zM25,27H26V28H25zM26,27H27V28H26zM27,27H28V28H27zM32,27H33V28H32zM34,27H35V28H34zM36,27H37V28H36zM37,27H38V28H37zM38,27H39V28H38zM42,27H43V28H42zM43,27H44V28H43zM4,28H5V29H4zM8,28H9V29H8zM10,28H11V29H10zM11,28H12V29H11zM12,28H13V29H12zM14,28H15V29H14zM16,28H17V29H16zM17,28H18V29H17zM18,28H19V29H18zM20,28H21V29H20zM21,28H22V29H21zM23,28H24V29H23zM26,28H27V29H26zM28,28H29V29H28zM29,28H30V29H29zM30,28H31V29H30zM33,28H34V29H33zM37,28H38V29H37zM39,28H40V29H39zM40,28H41V29H40zM41,28H42V29H41zM9,29H10V30H9zM12,29H13V30H12zM13,29H14V30H13zM14,29H15V30H14zM16,29H17V30H16zM17,29H18V30H17zM19,29H20V30H19zM21,29H22V30H21zM22,29H23V30H22zM23,29H24V30H23zM24,29H25V30H24zM25,29H26V30H25zM27,29H28V30H27zM29,29H30V30H29zM32,29H33V30H32zM35,29H36V30H35zM37,29H38V30H37zM38,29H39V30H38zM39,29H40V30H39zM40,29H41V30H40zM41,29H42V30H41zM44,29H45V30H44zM4,30H5V31H4zM7,30H8V31H7zM8,30H9V31H8zM10,30H11V31H10zM16,30H17V31H16zM17,30H18V31H17zM19,30H20V31H19zM25,30H26V31H25zM31,30H32V31H31zM32,30H33V31H32zM36,30H37V31H36zM37,30H38V31H37zM39,30H40V31H39zM40,30H41V31H40zM5,31H6V32H5zM6,31H7V32H6zM7,31H8V32H7zM9,31H10V32H9zM12,31H13V32H12zM13,31H14V32H13zM14,31H15V32H14zM15,31H16V32H15zM16,31H17V32H16zM18,31H19V32H18zM24,31H25V32H24zM25,31H26V32H25zM27,31H28V32H27zM28,31H29V32H28zM30,31H31V32H30zM32,31H33V32H32zM35,31H36V32H35zM36,31H37V32H36zM38,31H39V32H38zM41,31H42V32H41zM43,31H44V32H43zM4,32H5V33H4zM5,32H6V33H5zM6,32H7V33H6zM9,32H10V33H9zM10,32H11V33H10zM12,32H13V33H12zM15,32H16V33H15zM19,32H20V33H19zM20,32H21V33H20zM21,32H22V33H21zM22,32H23V33H22zM24,32H25V33H24zM26,32H27V33H26zM27,32H28V33H27zM28,32H29V33H28zM29,32H30V33H29zM30,32H31V33H30zM33,32H34V33H33zM35,32H36V33H35zM36,32H37V33H36zM38,32H39V33H38zM39,32H40V33H39zM41,32H42V33H41zM42,32H43V33H42zM43,32H44V33H43zM44,32H45V33H44zM4,33H5V34H4zM6,33H7V34H6zM8,33H9V34H8zM14,33H15V34H14zM15,33H16V34H15zM17,33H18V34H17zM19,33H20V34H19zM20,33H21V34H20zM22,33H23V34H22zM25,33H26V34H25zM26,33H27V34H26zM29,33H30V34H29zM31,33H32V34H31zM33,33H34V34H33zM35,33H36V34H35zM37,33H38V34H37zM39,33H40V34H39zM40,33H41V34H40zM41,33H42V34H41zM43,33H44V34H43zM4,34H5V35H4zM7,34H8V35H7zM9,34H10V35H9zM10,34H11V35H10zM11,34H12V35H11zM13,34H14V35H13zM16,34H17V35H16zM20,34H21V35H20zM21,34H22V35H21zM24,34H25V35H24zM25,34H26V35H25zM26,34H27V35H26zM27,34H28V35H27zM31,34H32V35H31zM32,34H33V35H32zM37,34H38V35H37zM38,34H39V35H38zM40,34H41V35H40zM42,34H43V35H42zM43,34H44V35H43zM4,35H5V36H4zM6,35H7V36H6zM8,35H9V36H8zM13,35H14V36H13zM14,35H15V36H14zM16,35H17V36H16zM17,35H18V36H17zM18,35H19V36H18zM19,35H20V36H19zM20,35H21V36H20zM21,35H22V36H21zM30,35H31V36H30zM31,35H32V36H31zM33,35H34V36H33zM34,35H35V36H34zM37,35H38V36H37zM38,35H39V36H38zM39,35H40V36H39zM40,35H41V36H40zM41,35H42V36H41zM43,35H44V36H43zM44,35H45V36H44zM4,36H5V37H4zM8,36H9V37H8zM9,36H10V37H9zM10,36H11V37H10zM12,36H13V37H12zM13,36H14V37H13zM17,36H18V37H17zM19,36H20V37H19zM20,36H21V37H20zM24,36H25V37H24zM25,36H26V37H25zM26,36H27V37H26zM28,36H29V37H28zM29,36H30V37H29zM31,36H32V37H31zM33,36H34V37H33zM34,36H35V37H34zM36,36H37V37H36zM37,36H38V37H37zM38,36H39V37H38zM39,36H40V37H39zM40,36H41V37H40zM42,36H43V37H42zM43,36H44V37H43zM12,37H13V38H12zM14,37H15V38H14zM15,37H16V38H15zM17,37H18V38H17zM18,37H19V38H18zM19,37H20V38H19zM22,37H23V38H22zM24,37H25V38H24zM28,37H29V38H28zM30,37H31V38H30zM31,37H32V38H31zM33,37H34V38H33zM35,37H36V38H35zM36,37H37V38H36zM40,37H41V38H40zM41,37H42V38H41zM43,37H44V38H43zM44,37H45V38H44zM4,38H5V39H4zM5,38H6V39H5zM6,38H7V39H6zM7,38H8V39H7zM8,38H9V39H8zM9,38H10V39H9zM10,38H11V39H10zM14,38H15V39H14zM16,38H17V39H16zM17,38H18V39H17zM22,38H23V39H22zM26,38H27V39H26zM27,38H28V39H27zM28,38H29V39H28zM30,38H31V39H30zM34,38H35V39H34zM36,38H37V39H36zM38,38H39V39H38zM40,38H41V39H40zM42,38H43V39H42zM4,39H5V40H4zM10,39H11V40H10zM12,39H13V40H12zM14,39H15V40H14zM15,39H16V40H15zM16,39H17V40H16zM23,39H24V40H23zM27,39H28V40H27zM31,39H32V40H31zM33,39H34V40H33zM34,39H35V40H34zM35,39H36V40H35zM36,39H37V40H36zM40,39H41V40H40zM42,39H43V40H42zM44,39H45V40H44zM4,40H5V41H4zM6,40H7V41H6zM7,40H8V41H7zM8,40H9V41H8zM10,40H11V41H10zM12,40H13V41H12zM19,40H20V41H19zM22,40H23V41H22zM23,40H24V41H23zM25,40H26V41H25zM26,40H27V41H26zM27,40H28V41H27zM28,40H29V41H28zM30,40H31V41H30zM31,40H32V41H31zM36,40H37V41H36zM37,40H38V41H37zM38,40H39V41H38zM39,40H40V41H39zM40,40H41V41H40zM44,40H45V41H44zM4,41H5V42H4zM6,41H7V42H6zM7,41H8V42H7zM8,41H9V42H8zM10,41H11V42H10zM12,41H13V42H12zM13,41H14V42H13zM15,41H16V42H15zM16,41H17V42H16zM18,41H19V42H18zM20,41H21V42H20zM21,41H22V42H21zM23,41H24V42H23zM24,41H25V42H24zM27,41H28V42H27zM32,41H33V42H32zM36,41H37V42H36zM37,41H38V42H37zM39,41H40V42H39zM44,41H45V42H44zM4,42H5V43H4zM6,42H7V43H6zM7,42H8V43H7zM8,42H9V43H8zM10,42H11V43H10zM12,42H13V43H12zM13,42H14V43H13zM15,42H16V43H15zM19,42H20V43H19zM21,42H22V43H21zM26,42H27V43H26zM28,42H29V43H28zM31,42H32V43H31zM33,42H34V43H33zM34,42H35V43H34zM37,42H38V43H37zM38,42H39V43H38zM39,42H40V43H39zM40,42H41V43H40zM42,42H43V43H42zM43,42H44V43H43zM4,43H5V44H4zM10,43H11V44H10zM15,43H16V44H15zM16,43H17V44H16zM17,43H18V44H17zM22,43H23V44H22zM23,43H24V44H23zM25,43H26V44H25zM27,43H28V44H27zM30,43H31V44H30zM31,43H32V44H31zM34,43H35V44H34zM36,43H37V44H36zM37,43H38V44H37zM38,43H39V44H38zM40,43H41V44H40zM41,43H42V44H41zM42,43H43V44H42zM43,43H44V44H43zM4,44H5V45H4zM5,44H6V45H5zM6,44H7V45H6zM7,44H8V45H7zM8,44H9V45H8zM9,44H10V45H9zM10,44H11V45H10zM12,44H13V45H12zM15,44H16V45H15zM17,44H18V45H17zM18,44H19V45H18zM19,44H20V45H19zM20,44H21V45H20zM21,44H22V45H21zM22,44H23V45H22zM24,44H25V45H24zM26,44H27V45H26zM27,44H28V45H27zM28,44H29V45H28zM29,44H30V45H29zM30,44H31V45H30zM31,44H32V45H31zM33,44H34V45H33zM35,44H36V45H35zM39,44H40V45H39zM40,44H41V45H40zM42,44H43V45H42z" id="qr-path" fill="#000000" fill-opacity="1" fill-rule="nonzero" stroke="none"/></svg>